<svg width="20" height="20" viewBox="0 0 20 20" fill="none" xmlns="http://www.w3.org/2000/svg">
<path d="M18.1249 9.7634C18.1196 9.66592 18.08 9.57346 18.0131 9.50239C17.9462 9.43132 17.8562 9.38623 17.7593 9.37512L16.7577 9.21301C16.7126 9.20562 16.6712 9.18386 16.6395 9.15099C16.6078 9.11811 16.5876 9.07588 16.5819 9.03059C16.5628 8.90754 16.5429 8.77981 16.5155 8.65871C16.5067 8.61467 16.5119 8.56897 16.5303 8.528C16.5487 8.48703 16.5795 8.45284 16.6182 8.4302L17.5081 7.93606C17.5964 7.89102 17.6652 7.81507 17.7012 7.72266C17.7372 7.63026 17.738 7.52784 17.7034 7.43488L17.5491 7.0091C17.5153 6.91583 17.4482 6.83832 17.3608 6.7914C17.2734 6.74448 17.1717 6.73145 17.0753 6.75481L16.0772 6.95012C16.0326 6.9581 15.9866 6.95178 15.9458 6.93207C15.9049 6.91236 15.8714 6.88026 15.8499 6.84035C15.7917 6.73137 15.7284 6.62043 15.6624 6.51145C15.6384 6.47262 15.6272 6.42727 15.6303 6.38174C15.6333 6.33621 15.6506 6.29278 15.6796 6.25754L16.3436 5.49035C16.4111 5.41793 16.4498 5.32341 16.4526 5.22448C16.4554 5.12555 16.4221 5.02898 16.3589 4.95285L16.069 4.60481C16.006 4.52841 15.9168 4.47813 15.8188 4.4637C15.7208 4.44927 15.621 4.47171 15.5386 4.52668L14.6647 5.05129C14.626 5.0745 14.5808 5.08464 14.5359 5.08021C14.4909 5.07578 14.4486 5.05701 14.4151 5.02668C14.3186 4.94192 14.2198 4.86027 14.1272 4.78488C14.0917 4.75684 14.066 4.71821 14.0539 4.67459C14.0419 4.63097 14.044 4.58463 14.06 4.54231L14.4218 3.58918C14.4612 3.49824 14.4658 3.39599 14.4347 3.30187C14.4037 3.20775 14.3392 3.12831 14.2534 3.07863L13.8593 2.84856C13.7734 2.79907 13.6724 2.78298 13.5754 2.80338C13.4785 2.82378 13.3925 2.87923 13.3339 2.9591L12.6952 3.76145C12.6722 3.79632 12.6378 3.8221 12.5979 3.83436C12.558 3.84663 12.515 3.8446 12.4764 3.82863C12.4526 3.81887 12.2511 3.73645 12.0944 3.6841C12.0514 3.6701 12.0141 3.64272 11.9878 3.60596C11.9615 3.5692 11.9477 3.52499 11.9483 3.47981L11.9636 2.46145C11.969 2.36201 11.938 2.264 11.8764 2.18577C11.8148 2.10753 11.7267 2.05445 11.6288 2.03645L11.1815 1.95832C11.0841 1.94149 10.9838 1.9606 10.8994 2.01211C10.815 2.06363 10.7521 2.14404 10.7225 2.2384L10.3905 3.20754C10.3754 3.25056 10.347 3.28762 10.3093 3.31328C10.2716 3.33894 10.2267 3.35185 10.1811 3.35012H9.80027C9.75507 3.35105 9.71072 3.33769 9.67355 3.31195C9.63638 3.28621 9.60828 3.2494 9.59324 3.20676L9.26277 2.24309C9.2337 2.14804 9.17097 2.06684 9.08634 2.01471C9.00171 1.96258 8.90098 1.94309 8.80301 1.95988L8.35496 2.03801C8.25764 2.05587 8.17011 2.10844 8.10861 2.18595C8.04712 2.26347 8.01584 2.36066 8.02059 2.45949L8.03621 3.48137C8.03652 3.52723 8.02202 3.57197 7.99485 3.60892C7.96768 3.64588 7.9293 3.67307 7.88543 3.68645C7.79598 3.72121 7.60184 3.79543 7.51356 3.82824C7.43543 3.85637 7.35027 3.82551 7.28152 3.74621L6.64637 2.96496C6.58809 2.8846 6.50217 2.82861 6.40511 2.80777C6.30805 2.78693 6.20672 2.80271 6.12059 2.85207L5.72762 3.07981C5.64092 3.12957 5.5757 3.20967 5.54454 3.30466C5.51338 3.39965 5.51849 3.50281 5.55887 3.59426L5.9202 4.54504C5.93596 4.58745 5.93803 4.63374 5.92612 4.6774C5.91421 4.72105 5.88891 4.75987 5.85379 4.7884C5.75887 4.86652 5.6616 4.94465 5.56473 5.03137C5.53146 5.06146 5.48944 5.08012 5.44481 5.08462C5.40018 5.08912 5.35528 5.07922 5.31668 5.05637L4.45301 4.5216C4.37008 4.46766 4.27031 4.44583 4.17243 4.46021C4.07454 4.4746 3.98528 4.5242 3.92137 4.59973L3.6327 4.94699C3.56858 5.0226 3.53459 5.11921 3.53726 5.21831C3.53993 5.31741 3.57906 5.41205 3.64715 5.4841L4.31434 6.25051C4.34395 6.28504 4.36164 6.3282 4.36481 6.37358C4.36798 6.41896 4.35644 6.46415 4.33192 6.50246C4.26512 6.60871 4.20145 6.72043 4.14363 6.83215C4.12201 6.87234 4.08821 6.90464 4.04709 6.92443C4.00596 6.94422 3.95963 6.95048 3.91473 6.94231L2.91824 6.74973C2.82176 6.72645 2.72009 6.7395 2.63262 6.78641C2.54515 6.83331 2.47802 6.91078 2.44403 7.00402L2.28778 7.42902C2.25324 7.5221 2.25405 7.6246 2.29004 7.71712C2.32604 7.80963 2.39473 7.88573 2.48309 7.93098L3.37293 8.42512C3.41295 8.4472 3.44469 8.48171 3.46337 8.52343C3.48204 8.56515 3.48663 8.61181 3.47645 8.65637L3.46707 8.70598C3.44676 8.81496 3.42801 8.91809 3.41004 9.02785C3.40383 9.07258 3.38363 9.11419 3.35234 9.14675C3.32105 9.1793 3.28027 9.20113 3.23582 9.2091L2.23231 9.37121C2.13417 9.38326 2.04377 9.43062 1.978 9.50444C1.91222 9.57827 1.87557 9.67351 1.87488 9.77238V10.2247C1.87431 10.324 1.91059 10.4199 1.97669 10.494C2.04279 10.568 2.13402 10.6149 2.2327 10.6255L3.23582 10.7872C3.2809 10.7946 3.32239 10.8163 3.35408 10.8492C3.38577 10.8821 3.40595 10.9243 3.4116 10.9696C3.43074 11.0931 3.45067 11.2204 3.47801 11.3415C3.48682 11.3856 3.48166 11.4313 3.46324 11.4722C3.44482 11.5132 3.41407 11.5474 3.37528 11.57L2.48582 12.065C2.39746 12.11 2.32874 12.1859 2.29273 12.2784C2.25672 12.3708 2.25593 12.4732 2.29051 12.5661L2.44676 12.9919C2.48067 13.0851 2.54774 13.1626 2.63514 13.2095C2.72254 13.2564 2.82416 13.2695 2.92059 13.2462L3.91863 13.0529C3.96327 13.0448 4.00932 13.051 4.05017 13.0707C4.09102 13.0905 4.12456 13.1226 4.14598 13.1626C4.20457 13.272 4.26746 13.3825 4.33348 13.4915C4.35757 13.5303 4.36887 13.5757 4.36579 13.6212C4.3627 13.6668 4.34539 13.7102 4.31629 13.7454L3.65223 14.5122C3.58398 14.5841 3.54433 14.6784 3.54073 14.7775C3.53714 14.8765 3.56984 14.9735 3.6327 15.0501L3.92215 15.3982C3.98515 15.4746 4.07432 15.525 4.17234 15.5394C4.27036 15.5538 4.37025 15.5313 4.45262 15.4763L5.32645 14.9517C5.36519 14.9285 5.41037 14.9183 5.45532 14.9228C5.50026 14.9272 5.54259 14.946 5.57606 14.9763C5.67293 15.0611 5.77137 15.1427 5.86395 15.2181C5.89945 15.2462 5.92512 15.2848 5.93727 15.3284C5.94941 15.372 5.9474 15.4183 5.93152 15.4607L5.56942 16.4138C5.53002 16.5047 5.52541 16.607 5.55645 16.7011C5.58748 16.7952 5.65201 16.8747 5.73777 16.9243L6.1327 17.1525C6.21847 17.202 6.31951 17.2181 6.41645 17.1978C6.51339 17.1775 6.59943 17.1221 6.65809 17.0423L7.30457 16.2474C7.35926 16.1798 7.4452 16.1497 7.50887 16.1755C7.64481 16.2318 7.73582 16.2634 7.89715 16.3173C7.94012 16.3313 7.9775 16.3587 8.00384 16.3955C8.03018 16.4322 8.04412 16.4764 8.04363 16.5216L8.02801 17.5392C8.02274 17.6386 8.05379 17.7365 8.11538 17.8147C8.17698 17.8929 8.2649 17.946 8.36277 17.9642L8.81004 18.0423C8.90751 18.0593 9.00784 18.0403 9.09229 17.9887C9.17675 17.9372 9.23957 17.8567 9.26902 17.7622L9.60106 16.7946C9.61608 16.7516 9.64454 16.7145 9.68223 16.6888C9.71992 16.6632 9.76486 16.6503 9.81043 16.6521H10.1913C10.2365 16.6511 10.2809 16.6644 10.3181 16.6902C10.3552 16.7159 10.3833 16.7528 10.3983 16.7954L10.7292 17.7591C10.7548 17.8428 10.8066 17.916 10.8769 17.9681C10.9472 18.0202 11.0323 18.0484 11.1198 18.0486C11.1431 18.0486 11.1664 18.0465 11.1893 18.0423L11.6374 17.9642C11.7347 17.9463 11.8222 17.8938 11.8837 17.8162C11.9452 17.7387 11.9765 17.6415 11.9718 17.5427L11.9561 16.5208C11.9558 16.4758 11.9699 16.4319 11.9962 16.3953C12.0225 16.3588 12.0598 16.3316 12.1026 16.3177C12.2526 16.2673 12.3581 16.2267 12.4507 16.1907L12.4741 16.1818C12.5952 16.14 12.6538 16.1907 12.6878 16.2329L13.3421 17.0388C13.4007 17.1185 13.4867 17.1738 13.5835 17.1941C13.6804 17.2144 13.7813 17.1984 13.8671 17.1489L14.2604 16.9212C14.3465 16.8715 14.4112 16.7919 14.4423 16.6975C14.4733 16.6031 14.4685 16.5006 14.4288 16.4095L14.0679 15.4587C14.0519 15.4164 14.0497 15.3701 14.0616 15.3264C14.0734 15.2827 14.0987 15.2439 14.1339 15.2154C14.2288 15.1372 14.3261 15.0591 14.4229 14.9724C14.4564 14.9422 14.4987 14.9236 14.5435 14.9192C14.5884 14.9148 14.6335 14.925 14.6721 14.9482L15.5468 15.4716C15.6297 15.5256 15.7295 15.5475 15.8274 15.5331C15.9253 15.5187 16.0145 15.4691 16.0784 15.3935L16.3675 15.0458C16.4316 14.9702 16.4656 14.8736 16.4629 14.7745C16.4602 14.6754 16.4211 14.5808 16.353 14.5087L15.6866 13.7404C15.657 13.7058 15.6393 13.6627 15.6361 13.6173C15.633 13.5719 15.6445 13.5267 15.669 13.4884C15.7358 13.3825 15.7995 13.2708 15.8573 13.1587C15.879 13.1186 15.9128 13.0864 15.9539 13.0666C15.995 13.0468 16.0413 13.0405 16.0862 13.0486L17.0815 13.2427C17.178 13.266 17.2797 13.2529 17.3671 13.206C17.4546 13.1591 17.5217 13.0816 17.5557 12.9884L17.71 12.5634C17.7446 12.4704 17.7437 12.3679 17.7077 12.2755C17.6717 12.183 17.6031 12.107 17.5147 12.0618L16.6241 11.5669C16.5846 11.5446 16.5534 11.5102 16.5351 11.4687C16.5167 11.4273 16.5122 11.3811 16.5221 11.3368L16.5315 11.2872C16.5518 11.1782 16.5706 11.0751 16.5886 10.9654C16.5948 10.9206 16.615 10.879 16.6463 10.8465C16.6775 10.8139 16.7183 10.7921 16.7628 10.7841L17.7663 10.6224C17.8647 10.6105 17.9554 10.5632 18.0214 10.4893C18.0874 10.4154 18.1242 10.3199 18.1249 10.2208V9.7634ZM7.09168 13.4353C7.043 13.5199 6.97493 13.5918 6.89307 13.645C6.81121 13.6983 6.71788 13.7313 6.62077 13.7414C6.52365 13.7516 6.42552 13.7385 6.33442 13.7034C6.24333 13.6682 6.16188 13.6119 6.09676 13.5392C5.21674 12.5661 4.73083 11.3001 4.73387 9.98816C4.7369 8.6762 5.22865 7.41244 6.11317 6.44348C6.17862 6.37075 6.26042 6.31461 6.35183 6.27969C6.44323 6.24478 6.54163 6.23208 6.63891 6.24264C6.73618 6.25321 6.82955 6.28674 6.91133 6.34047C6.99311 6.3942 7.06095 6.46659 7.10926 6.55168L8.89246 9.69035C8.94601 9.78396 8.97418 9.88993 8.97418 9.99777C8.97418 10.1056 8.94601 10.2116 8.89246 10.3052L7.09168 13.4353ZM9.99988 15.2782C9.62816 15.2783 9.25747 15.2391 8.89402 15.1611C8.79934 15.1399 8.71098 15.0967 8.63609 15.0351C8.56119 14.9734 8.50189 14.8949 8.46297 14.8061C8.42405 14.7172 8.40662 14.6204 8.41208 14.5236C8.41754 14.4267 8.44575 14.3325 8.49442 14.2486L10.2913 11.1236C10.3453 11.0294 10.4233 10.9512 10.5172 10.8968C10.6112 10.8424 10.7179 10.8138 10.8264 10.8138H14.4257C14.5226 10.8136 14.6182 10.8363 14.7048 10.88C14.7913 10.9237 14.8664 10.9872 14.9238 11.0653C14.9813 11.1434 15.0195 11.2339 15.0354 11.3296C15.0514 11.4252 15.0445 11.5232 15.0155 11.6157C14.3323 13.7376 12.3436 15.2782 9.99988 15.2782ZM10.2932 8.8759L8.51551 5.74543C8.46733 5.66137 8.43961 5.56715 8.43458 5.47039C8.42955 5.37363 8.44736 5.27705 8.48657 5.18844C8.52577 5.09984 8.58528 5.0217 8.66027 4.96035C8.73526 4.899 8.82363 4.85615 8.91824 4.83527C9.27391 4.76032 9.63641 4.72262 9.99988 4.72277C12.3436 4.72277 14.3323 6.2634 15.0143 8.38645C15.0434 8.47895 15.0502 8.57699 15.0343 8.67263C15.0183 8.76826 14.9801 8.8588 14.9226 8.9369C14.8652 9.015 14.7902 9.07847 14.7036 9.12216C14.6171 9.16586 14.5214 9.18855 14.4245 9.1884H10.8307C10.7215 9.18862 10.6142 9.15979 10.5197 9.10488C10.4253 9.04997 10.3471 8.97095 10.2932 8.8759Z" fill="#CAB3FF"/>
</svg>
