<svg width="20" height="20" viewBox="0 0 20 20" fill="none" xmlns="http://www.w3.org/2000/svg">
<path d="M13.1243 10C12.3212 10 11.5447 9.64141 10.9368 8.99063C10.3458 8.35586 9.98489 7.50938 9.92122 6.60781C9.85325 5.64609 10.1466 4.76172 10.747 4.11719C11.3474 3.47266 12.1868 3.125 13.1243 3.125C14.0552 3.125 14.897 3.47891 15.4954 4.12187C16.0997 4.77109 16.3939 5.65391 16.3259 6.60742C16.2607 7.51016 15.9001 8.35625 15.3103 8.99023C14.704 9.64141 13.9279 10 13.1243 10Z" fill="#CAB3FF"/>
<path d="M18.274 16.875H7.97513C7.80954 16.8759 7.64597 16.8388 7.49698 16.7665C7.348 16.6943 7.21757 16.5888 7.11575 16.4582C7.00774 16.3166 6.93316 16.1525 6.89758 15.978C6.86199 15.8036 6.86634 15.6233 6.91028 15.4508C7.23919 14.1301 8.05403 13.0348 9.26653 12.2836C10.3427 11.6172 11.7126 11.25 13.1243 11.25C14.5638 11.25 15.8978 11.6016 16.9802 12.2676C18.1954 13.0148 19.0115 14.1164 19.3388 15.4531C19.3822 15.6258 19.3861 15.806 19.3501 15.9804C19.3141 16.1548 19.2392 16.3188 19.131 16.4602C19.0293 16.5901 18.8991 16.6951 18.7506 16.767C18.602 16.8389 18.439 16.8758 18.274 16.875Z" fill="#CAB3FF"/>
<path d="M5.74153 10.1562C4.36692 10.1562 3.15833 8.87813 3.04622 7.30742C2.99075 6.50273 3.24153 5.75859 3.74935 5.21289C4.25169 4.67266 4.96028 4.375 5.74153 4.375C6.52278 4.375 7.22591 4.67422 7.73099 5.21758C8.2427 5.76758 8.4927 6.51016 8.43411 7.3082C8.322 8.87852 7.1138 10.1562 5.74153 10.1562Z" fill="#CAB3FF"/>
<path d="M8.30638 11.3848C7.61927 11.0488 6.72747 10.8809 5.74192 10.8809C4.59114 10.8809 3.47356 11.1809 2.59466 11.7254C1.59817 12.3438 0.927861 13.2441 0.657158 14.3313C0.617543 14.4876 0.613796 14.6509 0.646197 14.8089C0.678599 14.9669 0.746311 15.1156 0.844267 15.2437C0.937215 15.3631 1.05629 15.4595 1.19234 15.5256C1.32839 15.5917 1.47778 15.6257 1.62903 15.625H5.96497C6.03815 15.625 6.10901 15.5993 6.16519 15.5524C6.22137 15.5055 6.25931 15.4404 6.27239 15.3684C6.27669 15.3438 6.28216 15.3191 6.28841 15.2949C6.61966 13.9645 7.39583 12.8402 8.5427 12.0207C8.58489 11.9903 8.61881 11.9498 8.64141 11.903C8.66401 11.8562 8.67457 11.8045 8.67212 11.7525C8.66968 11.7006 8.65431 11.6501 8.62742 11.6056C8.60052 11.5611 8.56295 11.524 8.5181 11.4977C8.45677 11.4617 8.38645 11.4238 8.30638 11.3848Z" fill="#CAB3FF"/>
</svg>
